<svg width="250" height="250" viewBox="0 0 250 250" fill="none" xmlns="http://www.w3.org/2000/svg">
<rect width="250" height="250" fill="white"/>
<path d="M125.595 9C160.539 27.4136 226.193 84.5926 209.259 166C204.555 161.639 191.518 152.044 177.003 148.556C177.003 138.904 175.938 133.399 174.316 125.124C172.733 117.058 170.627 106.188 167.931 99.4152C156.562 70.8601 137.169 53.742 125.595 47.5231C114.02 53.742 94.6271 70.8601 83.2586 99.4152C80.4824 106.388 78.2034 116.779 76.615 125.124C75.0782 133.198 74.1866 139.183 74.1866 148.556C61.2842 151.463 47.3066 161.397 41.9306 166C20.9642 90.4074 88.9706 29.8364 125.595 9Z" fill="#283593"/>
<path d="M125.595 90.4074C105.435 89.8259 88.9706 96.1703 83.2586 99.4152C80.4824 106.388 78.2034 116.779 76.615 125.124C84.2117 121.49 104.628 114.324 125.595 114.905C133.075 114.979 153.181 117.736 174.316 125.124C172.733 117.058 170.627 106.188 167.931 99.4152C153.717 91.9544 133.784 90.3013 125.595 90.4074Z" fill="#283593"/>
<rect x="95" y="146" width="24" height="69" fill="#FFB300"/>
<circle cx="107" cy="146" r="12" fill="#FFB300"/>
<circle cx="107" cy="215" r="12" fill="#FFB300"/>
<rect x="59" y="172" width="24" height="57" fill="#FFB300"/>
<circle cx="71" cy="172" r="12" fill="#FFB300"/>
<circle cx="71" cy="229" r="12" fill="#FFB300"/>
<rect x="167" y="172" width="24" height="57" fill="#FFB300"/>
<circle cx="179" cy="172" r="12" fill="#FFB300"/>
<circle cx="179" cy="229" r="12" fill="#FFB300"/>
<rect x="131" y="146" width="24" height="69" fill="#FFB300"/>
<circle cx="143" cy="146" r="12" fill="#FFB300"/>
<circle cx="143" cy="215" r="12" fill="#FFB300"/>
</svg>
