<svg width="489" height="100" viewBox="0 0 489 100" fill="none" xmlns="http://www.w3.org/2000/svg">
<path d="M50.183 14.3077C60.935 19.9734 81.1362 37.5669 75.9258 62.6154C74.4784 61.2735 70.467 58.3212 66.0009 57.248C66.0009 54.2781 65.6732 52.5843 65.1741 50.0381C64.687 47.5563 64.039 44.2117 63.2095 42.1277C59.7113 33.3416 53.7442 28.0744 50.183 26.1609C46.6215 28.0744 40.6544 33.3416 37.1564 42.1277C36.3022 44.2732 35.601 47.4704 35.1122 50.0381C34.6394 52.5224 34.365 54.364 34.365 57.248C30.3951 58.1424 26.0943 61.1991 24.4401 62.6154C17.9889 39.3561 38.914 20.7189 50.183 14.3077Z" fill="#283593"/>
<path d="M50.0424 39.0118C43.4394 38.8278 38.0468 40.8359 36.176 41.8629C35.2667 44.0699 34.5202 47.3587 34 50C36.4881 48.8498 43.1751 46.5817 50.0424 46.7656C52.4923 46.789 59.0777 47.6616 66 50C65.4815 47.447 64.7917 44.0066 63.9087 41.8629C59.2532 39.5015 52.7246 38.9783 50.0424 39.0118Z" fill="#283593"/>
<path d="M48.1539 56.4615H40.7693V77.6923H48.1539V56.4615Z" fill="#FFB300"/>
<path d="M44.4616 60.1538C46.5008 60.1538 48.1539 58.5007 48.1539 56.4615C48.1539 54.4223 46.5008 52.7692 44.4616 52.7692C42.4224 52.7692 40.7693 54.4223 40.7693 56.4615C40.7693 58.5007 42.4224 60.1538 44.4616 60.1538Z" fill="#FFB300"/>
<path d="M44.4616 81.3846C46.5008 81.3846 48.1539 79.7315 48.1539 77.6923C48.1539 75.6531 46.5008 74 44.4616 74C42.4224 74 40.7693 75.6531 40.7693 77.6923C40.7693 79.7315 42.4224 81.3846 44.4616 81.3846Z" fill="#FFB300"/>
<path d="M37.077 64.4615H29.6924V82H37.077V64.4615Z" fill="#FFB300"/>
<path d="M33.3847 68.1538C35.4239 68.1538 37.077 66.5007 37.077 64.4615C37.077 62.4223 35.4239 60.7692 33.3847 60.7692C31.3455 60.7692 29.6924 62.4223 29.6924 64.4615C29.6924 66.5007 31.3455 68.1538 33.3847 68.1538Z" fill="#FFB300"/>
<path d="M33.3847 85.6923C35.4239 85.6923 37.077 84.0392 37.077 82C37.077 79.9608 35.4239 78.3077 33.3847 78.3077C31.3455 78.3077 29.6924 79.9608 29.6924 82C29.6924 84.0392 31.3455 85.6923 33.3847 85.6923Z" fill="#FFB300"/>
<path d="M70.3077 64.4615H62.9231V82H70.3077V64.4615Z" fill="#FFB300"/>
<path d="M66.6154 68.1538C68.6546 68.1538 70.3077 66.5007 70.3077 64.4615C70.3077 62.4223 68.6546 60.7692 66.6154 60.7692C64.5762 60.7692 62.9231 62.4223 62.9231 64.4615C62.9231 66.5007 64.5762 68.1538 66.6154 68.1538Z" fill="#FFB300"/>
<path d="M66.6154 85.6923C68.6546 85.6923 70.3077 84.0392 70.3077 82C70.3077 79.9608 68.6546 78.3077 66.6154 78.3077C64.5762 78.3077 62.9231 79.9608 62.9231 82C62.9231 84.0392 64.5762 85.6923 66.6154 85.6923Z" fill="#FFB300"/>
<path d="M59.2308 56.4615H51.8462V77.6923H59.2308V56.4615Z" fill="#FFB300"/>
<path d="M55.5385 60.1538C57.5777 60.1538 59.2308 58.5007 59.2308 56.4615C59.2308 54.4223 57.5777 52.7692 55.5385 52.7692C53.4993 52.7692 51.8462 54.4223 51.8462 56.4615C51.8462 58.5007 53.4993 60.1538 55.5385 60.1538Z" fill="#FFB300"/>
<path d="M55.5385 81.3846C57.5777 81.3846 59.2308 79.7315 59.2308 77.6923C59.2308 75.6531 57.5777 74 55.5385 74C53.4993 74 51.8462 75.6531 51.8462 77.6923C51.8462 79.7315 53.4993 81.3846 55.5385 81.3846Z" fill="#FFB300"/>
<path d="M150.779 56.0161V45.5059C150.779 44.0654 150.498 42.7104 149.937 41.4409C149.399 40.147 148.655 39.0239 147.703 38.0718C146.75 37.1196 145.627 36.375 144.333 35.8379C143.064 35.2764 141.709 34.9956 140.269 34.9956C138.828 34.9956 137.461 35.2764 136.167 35.8379C134.897 36.375 133.787 37.1196 132.834 38.0718C131.882 39.0239 131.125 40.147 130.564 41.4409C130.027 42.7104 129.758 44.0654 129.758 45.5059V56.0161H150.779ZM161.289 77H150.779V66.4897H129.758V77H119.285V45.5059C119.285 42.6006 119.834 39.8784 120.933 37.3394C122.031 34.7759 123.521 32.542 125.4 30.6377C127.305 28.7334 129.526 27.2319 132.065 26.1333C134.629 25.0347 137.363 24.4854 140.269 24.4854C143.174 24.4854 145.896 25.0347 148.435 26.1333C150.999 27.2319 153.232 28.7334 155.137 30.6377C157.041 32.542 158.542 34.7759 159.641 37.3394C160.74 39.8784 161.289 42.6006 161.289 45.5059V77ZM212.339 71.6167C209.897 73.7163 207.163 75.3276 204.136 76.4507C201.108 77.5737 197.971 78.1353 194.724 78.1353C192.234 78.1353 189.829 77.8057 187.51 77.1465C185.215 76.5117 183.054 75.6084 181.028 74.4365C179.026 73.2402 177.195 71.812 175.535 70.1519C173.875 68.4917 172.446 66.6606 171.25 64.6587C170.078 62.6323 169.163 60.4717 168.503 58.1768C167.869 55.8574 167.551 53.4526 167.551 50.9624C167.551 48.4722 167.869 46.0674 168.503 43.748C169.163 41.4287 170.078 39.2681 171.25 37.2661C172.446 35.2397 173.875 33.3965 175.535 31.7363C177.195 30.0762 179.026 28.6602 181.028 27.4883C183.054 26.292 185.215 25.3765 187.51 24.7417C189.829 24.0825 192.234 23.7529 194.724 23.7529C197.971 23.7529 201.108 24.3145 204.136 25.4375C207.163 26.5361 209.897 28.1475 212.339 30.2715L206.772 39.4268C205.234 37.7666 203.416 36.4971 201.316 35.6182C199.216 34.7148 197.019 34.2632 194.724 34.2632C192.405 34.2632 190.232 34.7026 188.206 35.5815C186.179 36.4604 184.409 37.6567 182.896 39.1704C181.382 40.6597 180.186 42.4297 179.307 44.4805C178.428 46.5068 177.988 48.6675 177.988 50.9624C177.988 53.2573 178.428 55.418 179.307 57.4443C180.186 59.4463 181.382 61.2041 182.896 62.7178C184.409 64.2314 186.179 65.4277 188.206 66.3066C190.232 67.1855 192.405 67.625 194.724 67.625C197.019 67.625 199.216 67.1855 201.316 66.3066C203.416 65.4033 205.234 64.1216 206.772 62.4614L212.339 71.6167ZM258.848 71.6167C256.406 73.7163 253.672 75.3276 250.645 76.4507C247.617 77.5737 244.48 78.1353 241.233 78.1353C238.743 78.1353 236.338 77.8057 234.019 77.1465C231.724 76.5117 229.563 75.6084 227.537 74.4365C225.535 73.2402 223.704 71.812 222.043 70.1519C220.383 68.4917 218.955 66.6606 217.759 64.6587C216.587 62.6323 215.671 60.4717 215.012 58.1768C214.377 55.8574 214.06 53.4526 214.06 50.9624C214.06 48.4722 214.377 46.0674 215.012 43.748C215.671 41.4287 216.587 39.2681 217.759 37.2661C218.955 35.2397 220.383 33.3965 222.043 31.7363C223.704 30.0762 225.535 28.6602 227.537 27.4883C229.563 26.292 231.724 25.3765 234.019 24.7417C236.338 24.0825 238.743 23.7529 241.233 23.7529C244.48 23.7529 247.617 24.3145 250.645 25.4375C253.672 26.5361 256.406 28.1475 258.848 30.2715L253.281 39.4268C251.743 37.7666 249.924 36.4971 247.825 35.6182C245.725 34.7148 243.528 34.2632 241.233 34.2632C238.914 34.2632 236.741 34.7026 234.714 35.5815C232.688 36.4604 230.918 37.6567 229.404 39.1704C227.891 40.6597 226.694 42.4297 225.815 44.4805C224.937 46.5068 224.497 48.6675 224.497 50.9624C224.497 53.2573 224.937 55.418 225.815 57.4443C226.694 59.4463 227.891 61.2041 229.404 62.7178C230.918 64.2314 232.688 65.4277 234.714 66.3066C236.741 67.1855 238.914 67.625 241.233 67.625C243.528 67.625 245.725 67.1855 247.825 66.3066C249.924 65.4033 251.743 64.1216 253.281 62.4614L258.848 71.6167ZM300.962 77H264.963V24.4854H300.962V34.9956H275.474V45.5059H292.722V56.0161H275.474V66.4897H300.962V77ZM345.09 77H308.323V24.4854H318.833V66.4897H345.09V77ZM367.466 77H356.992V60.5571C354.673 59.9712 352.537 59.0312 350.583 57.7373C348.655 56.4434 346.995 54.9053 345.603 53.123C344.211 51.3164 343.125 49.3267 342.344 47.1538C341.587 44.9565 341.208 42.6494 341.208 40.2324V24.4854H351.719V40.2324C351.719 41.6729 351.987 43.04 352.524 44.334C353.086 45.6035 353.843 46.7144 354.795 47.6665C355.747 48.6187 356.858 49.3755 358.127 49.937C359.421 50.4741 360.789 50.7427 362.229 50.7427C363.669 50.7427 365.024 50.4741 366.294 49.937C367.588 49.3755 368.711 48.6187 369.663 47.6665C370.615 46.7144 371.36 45.6035 371.897 44.334C372.458 43.04 372.739 41.6729 372.739 40.2324V24.4854H383.213V40.2324C383.213 42.6494 382.822 44.9565 382.041 47.1538C381.284 49.3267 380.21 51.3164 378.818 53.123C377.427 54.9053 375.767 56.4434 373.838 57.7373C371.909 59.0312 369.785 59.9712 367.466 60.5571V77ZM387.278 40.2324C387.278 38.0596 387.693 36.021 388.523 34.1167C389.353 32.2124 390.476 30.5522 391.892 29.1362C393.333 27.6958 395.005 26.5605 396.909 25.7305C398.813 24.9004 400.852 24.4854 403.025 24.4854H427.122V34.9956H403.025C402.292 34.9956 401.609 35.1299 400.974 35.3984C400.339 35.667 399.778 36.0454 399.29 36.5337C398.826 36.9976 398.459 37.5469 398.191 38.1816C397.922 38.8164 397.788 39.5 397.788 40.2324C397.788 40.9648 397.922 41.6606 398.191 42.3198C398.459 42.9546 398.826 43.5161 399.29 44.0044C399.778 44.4683 400.339 44.8345 400.974 45.103C401.609 45.3716 402.292 45.5059 403.025 45.5059H413.535C415.708 45.5059 417.747 45.9209 419.651 46.751C421.58 47.5566 423.252 48.6797 424.668 50.1201C426.108 51.5361 427.231 53.2085 428.037 55.1372C428.867 57.0415 429.282 59.0801 429.282 61.2529C429.282 63.4258 428.867 65.4644 428.037 67.3687C427.231 69.2729 426.108 70.9453 424.668 72.3857C423.252 73.8018 421.58 74.9248 419.651 75.7549C417.747 76.585 415.708 77 413.535 77H390.208V66.4897H413.535C414.268 66.4897 414.951 66.3555 415.586 66.0869C416.221 65.8184 416.77 65.4521 417.234 64.9883C417.722 64.5 418.101 63.9385 418.369 63.3037C418.638 62.6689 418.772 61.9854 418.772 61.2529C418.772 60.5205 418.638 59.8369 418.369 59.2021C418.101 58.5674 417.722 58.0181 417.234 57.5542C416.77 57.0659 416.221 56.6875 415.586 56.4189C414.951 56.1504 414.268 56.0161 413.535 56.0161H403.025C400.852 56.0161 398.813 55.6011 396.909 54.771C395.005 53.9409 393.333 52.8179 391.892 51.4019C390.476 49.9614 389.353 48.2891 388.523 46.3848C387.693 44.4561 387.278 42.4053 387.278 40.2324ZM457.517 77H447.043V34.9956H431.26V24.4854H473.264V34.9956H457.517V77Z" fill="black"/>
</svg>
