<svg width="489" height="100" viewBox="0 0 489 100" fill="none" xmlns="http://www.w3.org/2000/svg">
<rect width="100" height="100" rx="50" fill="white"/>
<path d="M50.183 14.3077C60.935 19.9734 81.1362 37.5669 75.9258 62.6154C74.4784 61.2735 70.467 58.3212 66.0009 57.248C66.0009 54.2781 65.6732 52.5843 65.1741 50.0381C64.687 47.5563 64.039 44.2117 63.2095 42.1277C59.7113 33.3416 53.7442 28.0744 50.183 26.1609C46.6215 28.0744 40.6544 33.3416 37.1564 42.1277C36.3022 44.2732 35.601 47.4704 35.1122 50.0381C34.6394 52.5224 34.365 54.364 34.365 57.248C30.3951 58.1424 26.0943 61.1991 24.4401 62.6154C17.9889 39.3561 38.914 20.7189 50.183 14.3077Z" fill="#283593"/>
<path d="M50.0424 39.0118C43.4394 38.8278 38.0468 40.8359 36.176 41.8629C35.2667 44.0699 34.5202 47.3587 34 50C36.4881 48.8498 43.1751 46.5817 50.0424 46.7656C52.4923 46.789 59.0777 47.6616 66 50C65.4815 47.447 64.7917 44.0066 63.9087 41.8629C59.2532 39.5015 52.7246 38.9783 50.0424 39.0118Z" fill="#283593"/>
<path d="M48.1539 56.4615H40.7693V77.6923H48.1539V56.4615Z" fill="#FFB300"/>
<path d="M44.4616 60.1538C46.5008 60.1538 48.1539 58.5007 48.1539 56.4615C48.1539 54.4223 46.5008 52.7692 44.4616 52.7692C42.4224 52.7692 40.7693 54.4223 40.7693 56.4615C40.7693 58.5007 42.4224 60.1538 44.4616 60.1538Z" fill="#FFB300"/>
<path d="M44.4616 81.3846C46.5008 81.3846 48.1539 79.7315 48.1539 77.6923C48.1539 75.6531 46.5008 74 44.4616 74C42.4224 74 40.7693 75.6531 40.7693 77.6923C40.7693 79.7315 42.4224 81.3846 44.4616 81.3846Z" fill="#FFB300"/>
<path d="M37.077 64.4615H29.6924V82H37.077V64.4615Z" fill="#FFB300"/>
<path d="M33.3847 68.1538C35.4239 68.1538 37.077 66.5007 37.077 64.4615C37.077 62.4223 35.4239 60.7692 33.3847 60.7692C31.3455 60.7692 29.6924 62.4223 29.6924 64.4615C29.6924 66.5007 31.3455 68.1538 33.3847 68.1538Z" fill="#FFB300"/>
<path d="M33.3847 85.6923C35.4239 85.6923 37.077 84.0392 37.077 82C37.077 79.9608 35.4239 78.3077 33.3847 78.3077C31.3455 78.3077 29.6924 79.9608 29.6924 82C29.6924 84.0392 31.3455 85.6923 33.3847 85.6923Z" fill="#FFB300"/>
<path d="M70.3077 64.4615H62.9231V82H70.3077V64.4615Z" fill="#FFB300"/>
<path d="M66.6154 68.1538C68.6546 68.1538 70.3077 66.5007 70.3077 64.4615C70.3077 62.4223 68.6546 60.7692 66.6154 60.7692C64.5762 60.7692 62.9231 62.4223 62.9231 64.4615C62.9231 66.5007 64.5762 68.1538 66.6154 68.1538Z" fill="#FFB300"/>
<path d="M66.6154 85.6923C68.6546 85.6923 70.3077 84.0392 70.3077 82C70.3077 79.9608 68.6546 78.3077 66.6154 78.3077C64.5762 78.3077 62.9231 79.9608 62.9231 82C62.9231 84.0392 64.5762 85.6923 66.6154 85.6923Z" fill="#FFB300"/>
<path d="M59.2308 56.4615H51.8462V77.6923H59.2308V56.4615Z" fill="#FFB300"/>
<path d="M55.5385 60.1538C57.5777 60.1538 59.2308 58.5007 59.2308 56.4615C59.2308 54.4223 57.5777 52.7692 55.5385 52.7692C53.4993 52.7692 51.8462 54.4223 51.8462 56.4615C51.8462 58.5007 53.4993 60.1538 55.5385 60.1538Z" fill="#FFB300"/>
<path d="M55.5385 81.3846C57.5777 81.3846 59.2308 79.7315 59.2308 77.6923C59.2308 75.6531 57.5777 74 55.5385 74C53.4993 74 51.8462 75.6531 51.8462 77.6923C51.8462 79.7315 53.4993 81.3846 55.5385 81.3846Z" fill="#FFB300"/>
<path d="M165.779 56.0161V45.5059C165.779 44.0654 165.498 42.7104 164.937 41.4409C164.399 40.147 163.655 39.0239 162.703 38.0718C161.75 37.1196 160.627 36.375 159.333 35.8379C158.064 35.2764 156.709 34.9956 155.269 34.9956C153.828 34.9956 152.461 35.2764 151.167 35.8379C149.897 36.375 148.787 37.1196 147.834 38.0718C146.882 39.0239 146.125 40.147 145.564 41.4409C145.027 42.7104 144.758 44.0654 144.758 45.5059V56.0161H165.779ZM176.289 77H165.779V66.4897H144.758V77H134.285V45.5059C134.285 42.6006 134.834 39.8784 135.933 37.3394C137.031 34.7759 138.521 32.542 140.4 30.6377C142.305 28.7334 144.526 27.2319 147.065 26.1333C149.629 25.0347 152.363 24.4854 155.269 24.4854C158.174 24.4854 160.896 25.0347 163.435 26.1333C165.999 27.2319 168.232 28.7334 170.137 30.6377C172.041 32.542 173.542 34.7759 174.641 37.3394C175.74 39.8784 176.289 42.6006 176.289 45.5059V77ZM227.339 71.6167C224.897 73.7163 222.163 75.3276 219.136 76.4507C216.108 77.5737 212.971 78.1353 209.724 78.1353C207.234 78.1353 204.829 77.8057 202.51 77.1465C200.215 76.5117 198.054 75.6084 196.028 74.4365C194.026 73.2402 192.195 71.812 190.535 70.1519C188.875 68.4917 187.446 66.6606 186.25 64.6587C185.078 62.6323 184.163 60.4717 183.503 58.1768C182.869 55.8574 182.551 53.4526 182.551 50.9624C182.551 48.4722 182.869 46.0674 183.503 43.748C184.163 41.4287 185.078 39.2681 186.25 37.2661C187.446 35.2397 188.875 33.3965 190.535 31.7363C192.195 30.0762 194.026 28.6602 196.028 27.4883C198.054 26.292 200.215 25.3765 202.51 24.7417C204.829 24.0825 207.234 23.7529 209.724 23.7529C212.971 23.7529 216.108 24.3145 219.136 25.4375C222.163 26.5361 224.897 28.1475 227.339 30.2715L221.772 39.4268C220.234 37.7666 218.416 36.4971 216.316 35.6182C214.216 34.7148 212.019 34.2632 209.724 34.2632C207.405 34.2632 205.232 34.7026 203.206 35.5815C201.179 36.4604 199.409 37.6567 197.896 39.1704C196.382 40.6597 195.186 42.4297 194.307 44.4805C193.428 46.5068 192.988 48.6675 192.988 50.9624C192.988 53.2573 193.428 55.418 194.307 57.4443C195.186 59.4463 196.382 61.2041 197.896 62.7178C199.409 64.2314 201.179 65.4277 203.206 66.3066C205.232 67.1855 207.405 67.625 209.724 67.625C212.019 67.625 214.216 67.1855 216.316 66.3066C218.416 65.4033 220.234 64.1216 221.772 62.4614L227.339 71.6167ZM273.848 71.6167C271.406 73.7163 268.672 75.3276 265.645 76.4507C262.617 77.5737 259.48 78.1353 256.233 78.1353C253.743 78.1353 251.338 77.8057 249.019 77.1465C246.724 76.5117 244.563 75.6084 242.537 74.4365C240.535 73.2402 238.704 71.812 237.043 70.1519C235.383 68.4917 233.955 66.6606 232.759 64.6587C231.587 62.6323 230.671 60.4717 230.012 58.1768C229.377 55.8574 229.06 53.4526 229.06 50.9624C229.06 48.4722 229.377 46.0674 230.012 43.748C230.671 41.4287 231.587 39.2681 232.759 37.2661C233.955 35.2397 235.383 33.3965 237.043 31.7363C238.704 30.0762 240.535 28.6602 242.537 27.4883C244.563 26.292 246.724 25.3765 249.019 24.7417C251.338 24.0825 253.743 23.7529 256.233 23.7529C259.48 23.7529 262.617 24.3145 265.645 25.4375C268.672 26.5361 271.406 28.1475 273.848 30.2715L268.281 39.4268C266.743 37.7666 264.924 36.4971 262.825 35.6182C260.725 34.7148 258.528 34.2632 256.233 34.2632C253.914 34.2632 251.741 34.7026 249.714 35.5815C247.688 36.4604 245.918 37.6567 244.404 39.1704C242.891 40.6597 241.694 42.4297 240.815 44.4805C239.937 46.5068 239.497 48.6675 239.497 50.9624C239.497 53.2573 239.937 55.418 240.815 57.4443C241.694 59.4463 242.891 61.2041 244.404 62.7178C245.918 64.2314 247.688 65.4277 249.714 66.3066C251.741 67.1855 253.914 67.625 256.233 67.625C258.528 67.625 260.725 67.1855 262.825 66.3066C264.924 65.4033 266.743 64.1216 268.281 62.4614L273.848 71.6167ZM315.962 77H279.963V24.4854H315.962V34.9956H290.474V45.5059H307.722V56.0161H290.474V66.4897H315.962V77ZM360.09 77H323.323V24.4854H333.833V66.4897H360.09V77ZM382.466 77H371.992V60.5571C369.673 59.9712 367.537 59.0312 365.583 57.7373C363.655 56.4434 361.995 54.9053 360.603 53.123C359.211 51.3164 358.125 49.3267 357.344 47.1538C356.587 44.9565 356.208 42.6494 356.208 40.2324V24.4854H366.719V40.2324C366.719 41.6729 366.987 43.04 367.524 44.334C368.086 45.6035 368.843 46.7144 369.795 47.6665C370.747 48.6187 371.858 49.3755 373.127 49.937C374.421 50.4741 375.789 50.7427 377.229 50.7427C378.669 50.7427 380.024 50.4741 381.294 49.937C382.588 49.3755 383.711 48.6187 384.663 47.6665C385.615 46.7144 386.36 45.6035 386.897 44.334C387.458 43.04 387.739 41.6729 387.739 40.2324V24.4854H398.213V40.2324C398.213 42.6494 397.822 44.9565 397.041 47.1538C396.284 49.3267 395.21 51.3164 393.818 53.123C392.427 54.9053 390.767 56.4434 388.838 57.7373C386.909 59.0312 384.785 59.9712 382.466 60.5571V77ZM402.278 40.2324C402.278 38.0596 402.693 36.021 403.523 34.1167C404.353 32.2124 405.476 30.5522 406.892 29.1362C408.333 27.6958 410.005 26.5605 411.909 25.7305C413.813 24.9004 415.852 24.4854 418.025 24.4854H442.122V34.9956H418.025C417.292 34.9956 416.609 35.1299 415.974 35.3984C415.339 35.667 414.778 36.0454 414.29 36.5337C413.826 36.9976 413.459 37.5469 413.191 38.1816C412.922 38.8164 412.788 39.5 412.788 40.2324C412.788 40.9648 412.922 41.6606 413.191 42.3198C413.459 42.9546 413.826 43.5161 414.29 44.0044C414.778 44.4683 415.339 44.8345 415.974 45.103C416.609 45.3716 417.292 45.5059 418.025 45.5059H428.535C430.708 45.5059 432.747 45.9209 434.651 46.751C436.58 47.5566 438.252 48.6797 439.668 50.1201C441.108 51.5361 442.231 53.2085 443.037 55.1372C443.867 57.0415 444.282 59.0801 444.282 61.2529C444.282 63.4258 443.867 65.4644 443.037 67.3687C442.231 69.2729 441.108 70.9453 439.668 72.3857C438.252 73.8018 436.58 74.9248 434.651 75.7549C432.747 76.585 430.708 77 428.535 77H405.208V66.4897H428.535C429.268 66.4897 429.951 66.3555 430.586 66.0869C431.221 65.8184 431.77 65.4521 432.234 64.9883C432.722 64.5 433.101 63.9385 433.369 63.3037C433.638 62.6689 433.772 61.9854 433.772 61.2529C433.772 60.5205 433.638 59.8369 433.369 59.2021C433.101 58.5674 432.722 58.0181 432.234 57.5542C431.77 57.0659 431.221 56.6875 430.586 56.4189C429.951 56.1504 429.268 56.0161 428.535 56.0161H418.025C415.852 56.0161 413.813 55.6011 411.909 54.771C410.005 53.9409 408.333 52.8179 406.892 51.4019C405.476 49.9614 404.353 48.2891 403.523 46.3848C402.693 44.4561 402.278 42.4053 402.278 40.2324ZM472.517 77H462.043V34.9956H446.26V24.4854H488.264V34.9956H472.517V77Z" fill="white"/>
</svg>
