<svg width="24" height="25" viewBox="0 0 24 25" fill="none" xmlns="http://www.w3.org/2000/svg">
<g clip-path="url(#clip0_769_5931)">
<path d="M13.6184 13.421C13.2857 13.421 12.9861 13.6771 12.906 14.0299L12.905 15.23C12.9901 15.5789 13.2766 15.8126 13.6184 15.8126C14.1714 15.8126 14.4887 15.3731 14.4887 14.6066C14.4887 14.3286 14.4259 13.421 13.6184 13.421Z" fill="black"/>
<path d="M6.65633 14.002H7.64701L7.13559 12.2252L6.65633 14.002Z" fill="black"/>
<path d="M4.07244 0.5L1.986 3.56728L1.98425 22.9118L1.986 22.912V24.5001H18.8555V24.4786L18.9077 24.4834L22.0157 22.1059V0.5H4.07244ZM8.51698 17.3171L7.98804 15.5572H6.3222L5.8339 17.3171H3.8089L6.02543 10.0653H8.35206L10.6008 17.3171H8.51698ZM15.6943 16.6964C15.2433 17.1688 14.6361 17.429 13.9846 17.429C13.4329 17.429 12.9706 17.2534 12.6243 16.9163L12.589 17.3171H10.9359L10.9384 9.69891H12.8803V12.2577C13.2251 11.9826 13.6817 11.8352 14.2083 11.8352C14.791 11.8352 15.3106 12.0483 15.711 12.4513C16.2004 12.9439 16.4668 13.6882 16.461 14.547C16.4611 15.4271 16.1959 16.1708 15.6943 16.6964ZM20.3202 21.2682L18.8555 22.3886V3.56728H4.04616L4.97309 2.19551H20.3202V21.2682Z" fill="black"/>
</g>
<defs>
<clipPath id="clip0_769_5931">
<rect width="24" height="24" fill="white" transform="translate(0 0.5)"/>
</clipPath>
</defs>
</svg>
